<svg xmlns="http://www.w3.org/2000/svg" width="151" height="43" viewBox="0 0 151 43" fill="none"><path d="M3.9 22.5V10.73L1.2 12.38V9.72L3.9 8.1H6.36V22.5H3.9ZM14.4995 22.8C13.5062 22.8 12.6395 22.55 11.8995 22.05C11.1595 21.55 10.5862 20.87 10.1795 20.01C9.77286 19.15 9.56953 18.18 9.56953 17.1C9.56953 16.0067 9.77286 15.0333 10.1795 14.18C10.5929 13.32 11.1762 12.6433 11.9295 12.15C12.6829 11.65 13.5695 11.4 14.5895 11.4C15.6162 11.4 16.4762 11.65 17.1695 12.15C17.8695 12.6433 18.3995 13.32 18.7595 14.18C19.1195 15.04 19.2995 16.0133 19.2995 17.1C19.2995 18.1733 19.1195 19.1433 18.7595 20.01C18.3995 20.87 17.8629 21.55 17.1495 22.05C16.4362 22.55 15.5529 22.8 14.4995 22.8ZM14.8695 20.64C15.5162 20.64 16.0362 20.4933 16.4295 20.2C16.8295 19.9 17.1195 19.4833 17.2995 18.95C17.4862 18.4167 17.5795 17.8 17.5795 17.1C17.5795 16.3933 17.4862 15.7767 17.2995 15.25C17.1195 14.7167 16.8362 14.3033 16.4495 14.01C16.0629 13.71 15.5629 13.56 14.9495 13.56C14.3029 13.56 13.7695 13.72 13.3495 14.04C12.9295 14.3533 12.6195 14.78 12.4195 15.32C12.2195 15.8533 12.1195 16.4467 12.1195 17.1C12.1195 17.76 12.2162 18.36 12.4095 18.9C12.6095 19.4333 12.9129 19.8567 13.3195 20.17C13.7262 20.4833 14.2429 20.64 14.8695 20.64ZM17.5795 22.5V14.92H17.2795V8.1H19.7095V22.5H17.5795ZM22.7133 10.06V7.85H25.1233V10.06H22.7133ZM22.7133 22.5V11.7H25.1233V22.5H22.7133ZM32.6588 27.6C32.0588 27.6 31.4821 27.5067 30.9288 27.32C30.3821 27.1333 29.8888 26.8633 29.4488 26.51C29.0088 26.1633 28.6488 25.7433 28.3688 25.25L30.5888 24.15C30.7954 24.5433 31.0854 24.8333 31.4588 25.02C31.8388 25.2133 32.2421 25.31 32.6688 25.31C33.1688 25.31 33.6154 25.22 34.0088 25.04C34.4021 24.8667 34.7054 24.6067 34.9188 24.26C35.1388 23.92 35.2421 23.4933 35.2288 22.98V19.91H35.5288V11.7H37.6388V23.02C37.6388 23.2933 37.6254 23.5533 37.5988 23.8C37.5788 24.0533 37.5421 24.3 37.4888 24.54C37.3288 25.24 37.0221 25.8133 36.5688 26.26C36.1154 26.7133 35.5521 27.05 34.8788 27.27C34.2121 27.49 33.4721 27.6 32.6588 27.6ZM32.4488 22.8C31.4554 22.8 30.5888 22.55 29.8488 22.05C29.1088 21.55 28.5354 20.87 28.1288 20.01C27.7221 19.15 27.5188 18.18 27.5188 17.1C27.5188 16.0067 27.7221 15.0333 28.1288 14.18C28.5421 13.32 29.1254 12.6433 29.8788 12.15C30.6321 11.65 31.5188 11.4 32.5388 11.4C33.5654 11.4 34.4254 11.65 35.1188 12.15C35.8188 12.6433 36.3488 13.32 36.7088 14.18C37.0688 15.04 37.2488 16.0133 37.2488 17.1C37.2488 18.1733 37.0688 19.1433 36.7088 20.01C36.3488 20.87 35.8121 21.55 35.0988 22.05C34.3854 22.55 33.5021 22.8 32.4488 22.8ZM32.8188 20.64C33.4654 20.64 33.9854 20.4933 34.3788 20.2C34.7788 19.9 35.0688 19.4833 35.2488 18.95C35.4354 18.4167 35.5288 17.8 35.5288 17.1C35.5288 16.3933 35.4354 15.7767 35.2488 15.25C35.0688 14.7167 34.7854 14.3033 34.3988 14.01C34.0121 13.71 33.5121 13.56 32.8988 13.56C32.2521 13.56 31.7188 13.72 31.2988 14.04C30.8788 14.3533 30.5688 14.78 30.3688 15.32C30.1688 15.8533 30.0688 16.4467 30.0688 17.1C30.0688 17.76 30.1654 18.36 30.3588 18.9C30.5588 19.4333 30.8621 19.8567 31.2688 20.17C31.6754 20.4833 32.1921 20.64 32.8188 20.64ZM40.643 10.06V7.85H43.053V10.06H40.643ZM40.643 22.5V11.7H43.053V22.5H40.643ZM52.3784 22.5C51.6651 22.6333 50.9651 22.69 50.2784 22.67C49.5984 22.6567 48.9884 22.5333 48.4484 22.3C47.9084 22.06 47.4984 21.6833 47.2184 21.17C46.9718 20.7033 46.8418 20.2267 46.8284 19.74C46.8151 19.2533 46.8084 18.7033 46.8084 18.09V8.7H49.2084V17.95C49.2084 18.3833 49.2118 18.7633 49.2184 19.09C49.2318 19.4167 49.3018 19.6833 49.4284 19.89C49.6684 20.29 50.0518 20.5133 50.5784 20.56C51.1051 20.6067 51.7051 20.58 52.3784 20.48V22.5ZM44.8484 13.59V11.7H52.3784V13.59H44.8484ZM57.7208 22.8C56.9408 22.8 56.2808 22.6533 55.7408 22.36C55.2008 22.06 54.7908 21.6633 54.5108 21.17C54.2374 20.6767 54.1008 20.1333 54.1008 19.54C54.1008 19.02 54.1874 18.5533 54.3608 18.14C54.5341 17.72 54.8008 17.36 55.1608 17.06C55.5208 16.7533 55.9874 16.5033 56.5608 16.31C56.9941 16.17 57.5008 16.0433 58.0808 15.93C58.6674 15.8167 59.3008 15.7133 59.9808 15.62C60.6674 15.52 61.3841 15.4133 62.1308 15.3L61.2708 15.79C61.2774 15.0433 61.1108 14.4933 60.7708 14.14C60.4308 13.7867 59.8574 13.61 59.0508 13.61C58.5641 13.61 58.0941 13.7233 57.6408 13.95C57.1874 14.1767 56.8708 14.5667 56.6908 15.12L54.4908 14.43C54.7574 13.5167 55.2641 12.7833 56.0108 12.23C56.7641 11.6767 57.7774 11.4 59.0508 11.4C60.0108 11.4 60.8541 11.5567 61.5808 11.87C62.3141 12.1833 62.8574 12.6967 63.2108 13.41C63.4041 13.79 63.5208 14.18 63.5608 14.58C63.6008 14.9733 63.6208 15.4033 63.6208 15.87V22.5H61.5108V20.16L61.8608 20.54C61.3741 21.32 60.8041 21.8933 60.1508 22.26C59.5041 22.62 58.6941 22.8 57.7208 22.8ZM58.2008 20.88C58.7474 20.88 59.2141 20.7833 59.6008 20.59C59.9874 20.3967 60.2941 20.16 60.5208 19.88C60.7541 19.6 60.9108 19.3367 60.9908 19.09C61.1174 18.7833 61.1874 18.4333 61.2008 18.04C61.2208 17.64 61.2308 17.3167 61.2308 17.07L61.9708 17.29C61.2441 17.4033 60.6208 17.5033 60.1008 17.59C59.5808 17.6767 59.1341 17.76 58.7608 17.84C58.3874 17.9133 58.0574 17.9967 57.7708 18.09C57.4908 18.19 57.2541 18.3067 57.0608 18.44C56.8674 18.5733 56.7174 18.7267 56.6108 18.9C56.5108 19.0733 56.4608 19.2767 56.4608 19.51C56.4608 19.7767 56.5274 20.0133 56.6608 20.22C56.7941 20.42 56.9874 20.58 57.2408 20.7C57.5008 20.82 57.8208 20.88 58.2008 20.88ZM66.4242 22.5V7.8H68.8342V22.5H66.4242ZM75.9997 22.8C74.6664 22.8 73.583 22.5 72.7497 21.9C71.9164 21.3 71.4097 20.4567 71.2297 19.37L73.6897 18.99C73.8164 19.5233 74.0964 19.9433 74.5297 20.25C74.963 20.5567 75.5097 20.71 76.1697 20.71C76.7497 20.71 77.1964 20.5967 77.5097 20.37C77.8297 20.1367 77.9897 19.82 77.9897 19.42C77.9897 19.1733 77.9297 18.9767 77.8097 18.83C77.6964 18.6767 77.443 18.53 77.0497 18.39C76.6564 18.25 76.053 18.0733 75.2397 17.86C74.333 17.62 73.613 17.3633 73.0797 17.09C72.5464 16.81 72.163 16.48 71.9297 16.1C71.6964 15.72 71.5797 15.26 71.5797 14.72C71.5797 14.0467 71.7564 13.46 72.1097 12.96C72.463 12.46 72.9564 12.0767 73.5897 11.81C74.223 11.5367 74.9697 11.4 75.8297 11.4C76.6697 11.4 77.413 11.53 78.0597 11.79C78.713 12.05 79.2397 12.42 79.6397 12.9C80.0397 13.38 80.2864 13.9433 80.3797 14.59L77.9197 15.03C77.8597 14.57 77.6497 14.2067 77.2897 13.94C76.9364 13.6733 76.463 13.5233 75.8697 13.49C75.303 13.4567 74.8464 13.5433 74.4997 13.75C74.153 13.95 73.9797 14.2333 73.9797 14.6C73.9797 14.8067 74.0497 14.9833 74.1897 15.13C74.3297 15.2767 74.6097 15.4233 75.0297 15.57C75.4564 15.7167 76.0897 15.8967 76.9297 16.11C77.7897 16.33 78.4764 16.5833 78.9897 16.87C79.5097 17.15 79.883 17.4867 80.1097 17.88C80.343 18.2733 80.4597 18.75 80.4597 19.31C80.4597 20.3967 80.063 21.25 79.2697 21.87C78.483 22.49 77.393 22.8 75.9997 22.8ZM88.98 22.5C88.2667 22.6333 87.5667 22.69 86.88 22.67C86.2 22.6567 85.59 22.5333 85.05 22.3C84.51 22.06 84.1 21.6833 83.82 21.17C83.5733 20.7033 83.4433 20.2267 83.43 19.74C83.4167 19.2533 83.41 18.7033 83.41 18.09V8.7H85.81V17.95C85.81 18.3833 85.8133 18.7633 85.82 19.09C85.8333 19.4167 85.9033 19.6833 86.03 19.89C86.27 20.29 86.6533 20.5133 87.18 20.56C87.7067 20.6067 88.3067 20.58 88.98 20.48V22.5ZM81.45 13.59V11.7H88.98V13.59H81.45ZM94.3223 22.8C93.5423 22.8 92.8823 22.6533 92.3423 22.36C91.8023 22.06 91.3923 21.6633 91.1123 21.17C90.839 20.6767 90.7023 20.1333 90.7023 19.54C90.7023 19.02 90.789 18.5533 90.9623 18.14C91.1357 17.72 91.4023 17.36 91.7623 17.06C92.1223 16.7533 92.589 16.5033 93.1623 16.31C93.5957 16.17 94.1023 16.0433 94.6823 15.93C95.269 15.8167 95.9023 15.7133 96.5823 15.62C97.269 15.52 97.9857 15.4133 98.7323 15.3L97.8723 15.79C97.879 15.0433 97.7123 14.4933 97.3723 14.14C97.0323 13.7867 96.459 13.61 95.6523 13.61C95.1657 13.61 94.6957 13.7233 94.2423 13.95C93.789 14.1767 93.4723 14.5667 93.2923 15.12L91.0923 14.43C91.359 13.5167 91.8657 12.7833 92.6123 12.23C93.3657 11.6767 94.379 11.4 95.6523 11.4C96.6123 11.4 97.4557 11.5567 98.1823 11.87C98.9157 12.1833 99.459 12.6967 99.8123 13.41C100.006 13.79 100.122 14.18 100.162 14.58C100.202 14.9733 100.222 15.4033 100.222 15.87V22.5H98.1123V20.16L98.4623 20.54C97.9757 21.32 97.4057 21.8933 96.7523 22.26C96.1057 22.62 95.2957 22.8 94.3223 22.8ZM94.8023 20.88C95.349 20.88 95.8157 20.7833 96.2023 20.59C96.589 20.3967 96.8957 20.16 97.1223 19.88C97.3557 19.6 97.5123 19.3367 97.5923 19.09C97.719 18.7833 97.789 18.4333 97.8023 18.04C97.8223 17.64 97.8323 17.3167 97.8323 17.07L98.5723 17.29C97.8457 17.4033 97.2223 17.5033 96.7023 17.59C96.1823 17.6767 95.7357 17.76 95.3623 17.84C94.989 17.9133 94.659 17.9967 94.3723 18.09C94.0923 18.19 93.8557 18.3067 93.6623 18.44C93.469 18.5733 93.319 18.7267 93.2123 18.9C93.1123 19.0733 93.0623 19.2767 93.0623 19.51C93.0623 19.7767 93.129 20.0133 93.2623 20.22C93.3957 20.42 93.589 20.58 93.8423 20.7C94.1023 20.82 94.4223 20.88 94.8023 20.88ZM107.516 22.8C106.402 22.8 105.452 22.5533 104.666 22.06C103.879 21.56 103.276 20.88 102.856 20.02C102.442 19.16 102.232 18.1867 102.226 17.1C102.232 15.9933 102.449 15.0133 102.876 14.16C103.309 13.3 103.922 12.6267 104.716 12.14C105.509 11.6467 106.452 11.4 107.546 11.4C108.772 11.4 109.809 11.71 110.656 12.33C111.509 12.9433 112.066 13.7833 112.326 14.85L109.926 15.5C109.739 14.92 109.429 14.47 108.996 14.15C108.562 13.8233 108.069 13.66 107.516 13.66C106.889 13.66 106.372 13.81 105.966 14.11C105.559 14.4033 105.259 14.81 105.066 15.33C104.872 15.85 104.776 16.44 104.776 17.1C104.776 18.1267 105.006 18.9567 105.466 19.59C105.926 20.2233 106.609 20.54 107.516 20.54C108.156 20.54 108.659 20.3933 109.026 20.1C109.399 19.8067 109.679 19.3833 109.866 18.83L112.326 19.38C111.992 20.48 111.409 21.3267 110.576 21.92C109.742 22.5067 108.722 22.8 107.516 22.8ZM114.31 22.5L114.33 8.1H116.77V16.9L120.72 11.7H123.73L119.54 17.1L124.09 22.5H120.9L116.77 17.3V22.5H114.31ZM125.491 22.5V20.03H127.961V22.5H125.491ZM134.186 22.8C133.406 22.8 132.746 22.6533 132.206 22.36C131.666 22.06 131.256 21.6633 130.976 21.17C130.702 20.6767 130.566 20.1333 130.566 19.54C130.566 19.02 130.652 18.5533 130.826 18.14C130.999 17.72 131.266 17.36 131.626 17.06C131.986 16.7533 132.452 16.5033 133.026 16.31C133.459 16.17 133.966 16.0433 134.546 15.93C135.132 15.8167 135.766 15.7133 136.446 15.62C137.132 15.52 137.849 15.4133 138.596 15.3L137.736 15.79C137.742 15.0433 137.576 14.4933 137.236 14.14C136.896 13.7867 136.322 13.61 135.516 13.61C135.029 13.61 134.559 13.7233 134.106 13.95C133.652 14.1767 133.336 14.5667 133.156 15.12L130.956 14.43C131.222 13.5167 131.729 12.7833 132.476 12.23C133.229 11.6767 134.242 11.4 135.516 11.4C136.476 11.4 137.319 11.5567 138.046 11.87C138.779 12.1833 139.322 12.6967 139.676 13.41C139.869 13.79 139.986 14.18 140.026 14.58C140.066 14.9733 140.086 15.4033 140.086 15.87V22.5H137.976V20.16L138.326 20.54C137.839 21.32 137.269 21.8933 136.616 22.26C135.969 22.62 135.159 22.8 134.186 22.8ZM134.666 20.88C135.212 20.88 135.679 20.7833 136.066 20.59C136.452 20.3967 136.759 20.16 136.986 19.88C137.219 19.6 137.376 19.3367 137.456 19.09C137.582 18.7833 137.652 18.4333 137.666 18.04C137.686 17.64 137.696 17.3167 137.696 17.07L138.436 17.29C137.709 17.4033 137.086 17.5033 136.566 17.59C136.046 17.6767 135.599 17.76 135.226 17.84C134.852 17.9133 134.522 17.9967 134.236 18.09C133.956 18.19 133.719 18.3067 133.526 18.44C133.332 18.5733 133.182 18.7267 133.076 18.9C132.976 19.0733 132.926 19.2767 132.926 19.51C132.926 19.7767 132.992 20.0133 133.126 20.22C133.259 20.42 133.452 20.58 133.706 20.7C133.966 20.82 134.286 20.88 134.666 20.88ZM142.889 10.06V7.85H145.299V10.06H142.889ZM142.889 22.5V11.7H145.299V22.5H142.889Z" fill="#131515"></path><path d="M1.8 39.5V32.3H2.535V39.5H1.8ZM7.93398 39.5V36.745C7.93398 36.445 7.90565 36.17 7.84898 35.92C7.79232 35.6667 7.70065 35.4467 7.57398 35.26C7.45065 35.07 7.28898 34.9233 7.08898 34.82C6.89232 34.7167 6.65232 34.665 6.36898 34.665C6.10898 34.665 5.87898 34.71 5.67898 34.8C5.48232 34.89 5.31565 35.02 5.17898 35.19C5.04565 35.3567 4.94398 35.56 4.87398 35.8C4.80398 36.04 4.76898 36.3133 4.76898 36.62L4.24898 36.505C4.24898 35.9517 4.34565 35.4867 4.53898 35.11C4.73232 34.7333 4.99898 34.4483 5.33898 34.255C5.67898 34.0617 6.06898 33.965 6.50898 33.965C6.83232 33.965 7.11398 34.015 7.35398 34.115C7.59732 34.215 7.80232 34.35 7.96898 34.52C8.13898 34.69 8.27565 34.885 8.37898 35.105C8.48232 35.3217 8.55732 35.5533 8.60398 35.8C8.65065 36.0433 8.67398 36.2867 8.67398 36.53V39.5H7.93398ZM4.02898 39.5V34.1H4.69398V35.43H4.76898V39.5H4.02898ZM12.9115 39.5C12.6082 39.5633 12.3082 39.5883 12.0115 39.575C11.7182 39.5617 11.4548 39.4983 11.2215 39.385C10.9915 39.2717 10.8165 39.095 10.6965 38.855C10.5998 38.655 10.5465 38.4533 10.5365 38.25C10.5298 38.0433 10.5265 37.8083 10.5265 37.545V32.6H11.2565V37.515C11.2565 37.7417 11.2582 37.9317 11.2615 38.085C11.2682 38.235 11.3032 38.3683 11.3665 38.485C11.4865 38.7083 11.6765 38.8417 11.9365 38.885C12.1998 38.9283 12.5248 38.9183 12.9115 38.855V39.5ZM9.37148 34.73V34.1H12.9115V34.73H9.37148ZM16.0651 39.65C15.5384 39.65 15.0817 39.5333 14.6951 39.3C14.3117 39.0667 14.0134 38.7383 13.8001 38.315C13.5867 37.8917 13.4801 37.395 13.4801 36.825C13.4801 36.235 13.5851 35.725 13.7951 35.295C14.0051 34.865 14.3001 34.5333 14.6801 34.3C15.0634 34.0667 15.5151 33.95 16.0351 33.95C16.5684 33.95 17.0234 34.0733 17.4001 34.32C17.7767 34.5633 18.0617 34.9133 18.2551 35.37C18.4484 35.8267 18.5367 36.3717 18.5201 37.005H17.7701V36.745C17.7567 36.045 17.6051 35.5167 17.3151 35.16C17.0284 34.8033 16.6084 34.625 16.0551 34.625C15.4751 34.625 15.0301 34.8133 14.7201 35.19C14.4134 35.5667 14.2601 36.1033 14.2601 36.8C14.2601 37.48 14.4134 38.0083 14.7201 38.385C15.0301 38.7583 15.4684 38.945 16.0351 38.945C16.4217 38.945 16.7584 38.8567 17.0451 38.68C17.3351 38.5 17.5634 38.2417 17.7301 37.905L18.4151 38.17C18.2017 38.64 17.8867 39.005 17.4701 39.265C17.0567 39.5217 16.5884 39.65 16.0651 39.65ZM14.0001 37.005V36.39H18.1251V37.005H14.0001ZM19.7297 39.5V32.15H20.4647V39.5H19.7297ZM22.0637 39.5V32.15H22.7987V39.5H22.0637ZM24.3977 33.075V32.25H25.1327V33.075H24.3977ZM24.3977 39.5V34.1H25.1327V39.5H24.3977ZM28.7766 42.05C28.5 42.05 28.2266 42.0083 27.9566 41.925C27.69 41.845 27.4433 41.7167 27.2166 41.54C26.99 41.3667 26.8 41.14 26.6466 40.86L27.3116 40.49C27.4616 40.79 27.6716 41.005 27.9416 41.135C28.215 41.2683 28.4933 41.335 28.7766 41.335C29.1666 41.335 29.4816 41.2617 29.7216 41.115C29.965 40.9717 30.1416 40.7583 30.2516 40.475C30.3616 40.1917 30.415 39.8383 30.4116 39.415V37.975H30.4966V34.1H31.1516V39.425C31.1516 39.5783 31.1466 39.725 31.1366 39.865C31.13 40.0083 31.115 40.1483 31.0916 40.285C31.0283 40.6883 30.8966 41.02 30.6966 41.28C30.5 41.54 30.24 41.7333 29.9166 41.86C29.5966 41.9867 29.2166 42.05 28.7766 42.05ZM28.7266 39.65C28.2233 39.65 27.7933 39.525 27.4366 39.275C27.08 39.0217 26.8066 38.68 26.6166 38.25C26.4266 37.82 26.3316 37.335 26.3316 36.795C26.3316 36.2583 26.425 35.775 26.6116 35.345C26.8016 34.915 27.0733 34.575 27.4266 34.325C27.78 34.075 28.2033 33.95 28.6966 33.95C29.2033 33.95 29.63 34.0733 29.9766 34.32C30.3233 34.5667 30.585 34.905 30.7616 35.335C30.9416 35.7617 31.0316 36.2483 31.0316 36.795C31.0316 37.3317 30.9433 37.8167 30.7666 38.25C30.59 38.68 30.33 39.0217 29.9866 39.275C29.6433 39.525 29.2233 39.65 28.7266 39.65ZM28.8016 38.965C29.185 38.965 29.5016 38.8717 29.7516 38.685C30.0016 38.4983 30.1883 38.2417 30.3116 37.915C30.435 37.585 30.4966 37.2117 30.4966 36.795C30.4966 36.3717 30.435 35.9983 30.3116 35.675C30.1883 35.3483 30.0016 35.0933 29.7516 34.91C29.505 34.7267 29.1933 34.635 28.8166 34.635C28.43 34.635 28.11 34.73 27.8566 34.92C27.6033 35.11 27.415 35.3683 27.2916 35.695C27.1716 36.0217 27.1116 36.3883 27.1116 36.795C27.1116 37.205 27.1733 37.575 27.2966 37.905C27.4233 38.2317 27.6116 38.49 27.8616 38.68C28.1116 38.87 28.425 38.965 28.8016 38.965ZM34.8346 39.65C34.3079 39.65 33.8513 39.5333 33.4646 39.3C33.0813 39.0667 32.7829 38.7383 32.5696 38.315C32.3563 37.8917 32.2496 37.395 32.2496 36.825C32.2496 36.235 32.3546 35.725 32.5646 35.295C32.7746 34.865 33.0696 34.5333 33.4496 34.3C33.8329 34.0667 34.2846 33.95 34.8046 33.95C35.3379 33.95 35.7929 34.0733 36.1696 34.32C36.5463 34.5633 36.8313 34.9133 37.0246 35.37C37.2179 35.8267 37.3063 36.3717 37.2896 37.005H36.5396V36.745C36.5263 36.045 36.3746 35.5167 36.0846 35.16C35.7979 34.8033 35.3779 34.625 34.8246 34.625C34.2446 34.625 33.7996 34.8133 33.4896 35.19C33.1829 35.5667 33.0296 36.1033 33.0296 36.8C33.0296 37.48 33.1829 38.0083 33.4896 38.385C33.7996 38.7583 34.2379 38.945 34.8046 38.945C35.1913 38.945 35.5279 38.8567 35.8146 38.68C36.1046 38.5 36.3329 38.2417 36.4996 37.905L37.1846 38.17C36.9713 38.64 36.6563 39.005 36.2396 39.265C35.8263 39.5217 35.3579 39.65 34.8346 39.65ZM32.7696 37.005V36.39H36.8946V37.005H32.7696ZM42.1527 39.5V36.745C42.1527 36.445 42.1244 36.17 42.0677 35.92C42.0111 35.6667 41.9194 35.4467 41.7927 35.26C41.6694 35.07 41.5077 34.9233 41.3077 34.82C41.1111 34.7167 40.8711 34.665 40.5877 34.665C40.3277 34.665 40.0977 34.71 39.8977 34.8C39.7011 34.89 39.5344 35.02 39.3977 35.19C39.2644 35.3567 39.1627 35.56 39.0927 35.8C39.0227 36.04 38.9877 36.3133 38.9877 36.62L38.4677 36.505C38.4677 35.9517 38.5644 35.4867 38.7577 35.11C38.9511 34.7333 39.2177 34.4483 39.5577 34.255C39.8977 34.0617 40.2877 33.965 40.7277 33.965C41.0511 33.965 41.3327 34.015 41.5727 34.115C41.8161 34.215 42.0211 34.35 42.1877 34.52C42.3577 34.69 42.4944 34.885 42.5977 35.105C42.7011 35.3217 42.7761 35.5533 42.8227 35.8C42.8694 36.0433 42.8927 36.2867 42.8927 36.53V39.5H42.1527ZM38.2477 39.5V34.1H38.9127V35.43H38.9877V39.5H38.2477ZM47.1302 39.5C46.8269 39.5633 46.5269 39.5883 46.2302 39.575C45.9369 39.5617 45.6736 39.4983 45.4402 39.385C45.2102 39.2717 45.0352 39.095 44.9152 38.855C44.8186 38.655 44.7652 38.4533 44.7552 38.25C44.7486 38.0433 44.7452 37.8083 44.7452 37.545V32.6H45.4752V37.515C45.4752 37.7417 45.4769 37.9317 45.4802 38.085C45.4869 38.235 45.5219 38.3683 45.5852 38.485C45.7052 38.7083 45.8952 38.8417 46.1552 38.885C46.4186 38.9283 46.7436 38.9183 47.1302 38.855V39.5ZM43.5902 34.73V34.1H47.1302V34.73H43.5902ZM53.1111 39.65C52.3944 39.65 51.7894 39.4917 51.2961 39.175C50.8028 38.855 50.4294 38.4133 50.1761 37.85C49.9228 37.2867 49.7961 36.6367 49.7961 35.9C49.7961 35.1633 49.9228 34.5133 50.1761 33.95C50.4294 33.3867 50.8028 32.9467 51.2961 32.63C51.7894 32.31 52.3944 32.15 53.1111 32.15C53.9478 32.15 54.6311 32.365 55.1611 32.795C55.6911 33.2217 56.0544 33.795 56.2511 34.515L55.5011 34.71C55.3478 34.14 55.0728 33.6883 54.6761 33.355C54.2794 33.0217 53.7578 32.855 53.1111 32.855C52.5478 32.855 52.0794 32.9833 51.7061 33.24C51.3328 33.4967 51.0511 33.855 50.8611 34.315C50.6744 34.7717 50.5778 35.3 50.5711 35.9C50.5678 36.5 50.6594 37.0283 50.8461 37.485C51.0361 37.9417 51.3194 38.3 51.6961 38.56C52.0761 38.8167 52.5478 38.945 53.1111 38.945C53.7578 38.945 54.2794 38.7783 54.6761 38.445C55.0728 38.1083 55.3478 37.6567 55.5011 37.09L56.2511 37.285C56.0544 38.005 55.6911 38.58 55.1611 39.01C54.6311 39.4367 53.9478 39.65 53.1111 39.65ZM59.6093 39.65C59.0726 39.65 58.6143 39.5283 58.2343 39.285C57.8543 39.0417 57.5626 38.705 57.3593 38.275C57.156 37.845 57.0543 37.3517 57.0543 36.795C57.0543 36.2283 57.1576 35.7317 57.3643 35.305C57.571 34.8783 57.8643 34.5467 58.2443 34.31C58.6276 34.07 59.0826 33.95 59.6093 33.95C60.1493 33.95 60.6093 34.0717 60.9893 34.315C61.3726 34.555 61.6643 34.89 61.8643 35.32C62.0676 35.7467 62.1693 36.2383 62.1693 36.795C62.1693 37.3617 62.0676 37.86 61.8643 38.29C61.661 38.7167 61.3676 39.05 60.9843 39.29C60.601 39.53 60.1426 39.65 59.6093 39.65ZM59.6093 38.945C60.2093 38.945 60.656 38.7467 60.9493 38.35C61.2426 37.95 61.3893 37.4317 61.3893 36.795C61.3893 36.1417 61.241 35.6217 60.9443 35.235C60.651 34.8483 60.206 34.655 59.6093 34.655C59.206 34.655 58.8726 34.7467 58.6093 34.93C58.3493 35.11 58.1543 35.3617 58.0243 35.685C57.8976 36.005 57.8343 36.375 57.8343 36.795C57.8343 37.445 57.9843 37.9667 58.2843 38.36C58.5843 38.75 59.026 38.945 59.6093 38.945ZM69.7123 39.5L69.7173 35.955C69.7173 35.5383 69.6006 35.2117 69.3673 34.975C69.1373 34.735 68.8439 34.615 68.4873 34.615C68.2839 34.615 68.0856 34.6617 67.8923 34.755C67.6989 34.8483 67.5389 34.9983 67.4123 35.205C67.2889 35.4117 67.2273 35.6817 67.2273 36.015L66.7923 35.89C66.7823 35.5033 66.8573 35.165 67.0173 34.875C67.1806 34.585 67.4039 34.36 67.6873 34.2C67.9739 34.0367 68.2973 33.955 68.6573 33.955C69.2006 33.955 69.6356 34.1233 69.9623 34.46C70.2889 34.7933 70.4523 35.245 70.4523 35.815L70.4473 39.5H69.7123ZM63.2673 39.5V34.1H63.9273V35.43H64.0073V39.5H63.2673ZM66.4973 39.5L66.5023 36.005C66.5023 35.575 66.3873 35.2367 66.1573 34.99C65.9306 34.74 65.6306 34.615 65.2573 34.615C64.8839 34.615 64.5823 34.7433 64.3523 35C64.1223 35.2533 64.0073 35.5917 64.0073 36.015L63.5673 35.775C63.5673 35.4283 63.6489 35.1183 63.8123 34.845C63.9756 34.5683 64.1989 34.3517 64.4823 34.195C64.7656 34.035 65.0873 33.955 65.4473 33.955C65.7906 33.955 66.0956 34.0283 66.3623 34.175C66.6323 34.3217 66.8439 34.535 66.9973 34.815C67.1506 35.095 67.2273 35.435 67.2273 35.835L67.2223 39.5H66.4973ZM78.1888 39.5L78.1938 35.955C78.1938 35.5383 78.0772 35.2117 77.8438 34.975C77.6138 34.735 77.3205 34.615 76.9638 34.615C76.7605 34.615 76.5622 34.6617 76.3688 34.755C76.1755 34.8483 76.0155 34.9983 75.8888 35.205C75.7655 35.4117 75.7038 35.6817 75.7038 36.015L75.2688 35.89C75.2588 35.5033 75.3338 35.165 75.4938 34.875C75.6572 34.585 75.8805 34.36 76.1638 34.2C76.4505 34.0367 76.7738 33.955 77.1338 33.955C77.6772 33.955 78.1122 34.1233 78.4388 34.46C78.7655 34.7933 78.9288 35.245 78.9288 35.815L78.9238 39.5H78.1888ZM71.7438 39.5V34.1H72.4038V35.43H72.4838V39.5H71.7438ZM74.9738 39.5L74.9788 36.005C74.9788 35.575 74.8638 35.2367 74.6338 34.99C74.4072 34.74 74.1072 34.615 73.7338 34.615C73.3605 34.615 73.0588 34.7433 72.8288 35C72.5988 35.2533 72.4838 35.5917 72.4838 36.015L72.0438 35.775C72.0438 35.4283 72.1255 35.1183 72.2888 34.845C72.4522 34.5683 72.6755 34.3517 72.9588 34.195C73.2422 34.035 73.5638 33.955 73.9238 33.955C74.2672 33.955 74.5722 34.0283 74.8388 34.175C75.1088 34.3217 75.3205 34.535 75.4738 34.815C75.6272 35.095 75.7038 35.435 75.7038 35.835L75.6988 39.5H74.9738ZM82.4811 39.65C81.9544 39.65 81.4978 39.5333 81.1111 39.3C80.7278 39.0667 80.4294 38.7383 80.2161 38.315C80.0028 37.8917 79.8961 37.395 79.8961 36.825C79.8961 36.235 80.0011 35.725 80.2111 35.295C80.4211 34.865 80.7161 34.5333 81.0961 34.3C81.4794 34.0667 81.9311 33.95 82.4511 33.95C82.9844 33.95 83.4394 34.0733 83.8161 34.32C84.1928 34.5633 84.4778 34.9133 84.6711 35.37C84.8644 35.8267 84.9528 36.3717 84.9361 37.005H84.1861V36.745C84.1728 36.045 84.0211 35.5167 83.7311 35.16C83.4444 34.8033 83.0244 34.625 82.4711 34.625C81.8911 34.625 81.4461 34.8133 81.1361 35.19C80.8294 35.5667 80.6761 36.1033 80.6761 36.8C80.6761 37.48 80.8294 38.0083 81.1361 38.385C81.4461 38.7583 81.8844 38.945 82.4511 38.945C82.8378 38.945 83.1744 38.8567 83.4611 38.68C83.7511 38.5 83.9794 38.2417 84.1461 37.905L84.8311 38.17C84.6178 38.64 84.3028 39.005 83.8861 39.265C83.4728 39.5217 83.0044 39.65 82.4811 39.65ZM80.4161 37.005V36.39H84.5411V37.005H80.4161ZM86.0457 39.5V34.1H86.7057V35.4L86.5757 35.23C86.6357 35.07 86.714 34.9233 86.8107 34.79C86.9074 34.6533 87.0124 34.5417 87.1257 34.455C87.2657 34.3317 87.429 34.2383 87.6157 34.175C87.8024 34.1083 87.9907 34.07 88.1807 34.06C88.3707 34.0467 88.544 34.06 88.7007 34.1V34.79C88.504 34.74 88.289 34.7283 88.0557 34.755C87.8224 34.7817 87.6074 34.875 87.4107 35.035C87.2307 35.175 87.0957 35.3433 87.0057 35.54C86.9157 35.7333 86.8557 35.94 86.8257 36.16C86.7957 36.3767 86.7807 36.5917 86.7807 36.805V39.5H86.0457ZM91.7916 39.65C91.2482 39.65 90.7882 39.5283 90.4116 39.285C90.0349 39.0417 89.7482 38.7067 89.5516 38.28C89.3582 37.85 89.2582 37.3567 89.2516 36.8C89.2582 36.2333 89.3616 35.7367 89.5616 35.31C89.7616 34.88 90.0499 34.5467 90.4266 34.31C90.8032 34.07 91.2599 33.95 91.7966 33.95C92.3432 33.95 92.8182 34.0833 93.2216 34.35C93.6282 34.6167 93.9066 34.9817 94.0566 35.445L93.3366 35.675C93.2099 35.3517 93.0082 35.1017 92.7316 34.925C92.4582 34.745 92.1449 34.655 91.7916 34.655C91.3949 34.655 91.0666 34.7467 90.8066 34.93C90.5466 35.11 90.3532 35.3617 90.2266 35.685C90.0999 36.0083 90.0349 36.38 90.0316 36.8C90.0382 37.4467 90.1882 37.9667 90.4816 38.36C90.7749 38.75 91.2116 38.945 91.7916 38.945C92.1582 38.945 92.4699 38.8617 92.7266 38.695C92.9866 38.525 93.1832 38.2783 93.3166 37.955L94.0566 38.175C93.8566 38.655 93.5632 39.0217 93.1766 39.275C92.7899 39.525 92.3282 39.65 91.7916 39.65ZM97.2272 39.65C96.7005 39.65 96.2439 39.5333 95.8572 39.3C95.4739 39.0667 95.1755 38.7383 94.9622 38.315C94.7489 37.8917 94.6422 37.395 94.6422 36.825C94.6422 36.235 94.7472 35.725 94.9572 35.295C95.1672 34.865 95.4622 34.5333 95.8422 34.3C96.2255 34.0667 96.6772 33.95 97.1972 33.95C97.7305 33.95 98.1855 34.0733 98.5622 34.32C98.9389 34.5633 99.2239 34.9133 99.4172 35.37C99.6105 35.8267 99.6989 36.3717 99.6822 37.005H98.9322V36.745C98.9189 36.045 98.7672 35.5167 98.4772 35.16C98.1905 34.8033 97.7705 34.625 97.2172 34.625C96.6372 34.625 96.1922 34.8133 95.8822 35.19C95.5755 35.5667 95.4222 36.1033 95.4222 36.8C95.4222 37.48 95.5755 38.0083 95.8822 38.385C96.1922 38.7583 96.6305 38.945 97.1972 38.945C97.5839 38.945 97.9205 38.8567 98.2072 38.68C98.4972 38.5 98.7255 38.2417 98.8922 37.905L99.5772 38.17C99.3639 38.64 99.0489 39.005 98.6322 39.265C98.2189 39.5217 97.7505 39.65 97.2272 39.65ZM95.1622 37.005V36.39H99.2872V37.005H95.1622Z" fill="#131515"></path><rect x="107" y="32.5" width="10" height="8" fill="#00A2E6"></rect><rect x="117" y="32.5" width="10" height="8" fill="#0094D1"></rect><rect x="127" y="32.5" width="10" height="8" fill="#0085BD"></rect><rect x="137" y="32.5" width="10" height="8" fill="#0078AA"></rect></svg>